<svg xmlns="http://www.w3.org/2000/svg" viewBox="0 0 441 113" width="441" height="113" role="img" aria-label="Instituto Rocca"><title>Instituto Rocca</title><g fill="#2A1A16"><path transform="translate(134.60 17.84)" d="M1.8039999999999998 -15.399999999999999V0.0H3.014V-15.399999999999999Z"/><path transform="translate(134.60 17.84)" d="M27.61 -15.399999999999999V-2.508L15.905999999999999 -15.994V0.0H17.116V-12.847999999999999L28.82 0.594V-15.399999999999999Z"/><path transform="translate(134.60 17.84)" d="M41.866 -4.444 40.876000000000005 -3.828Q41.25 -2.75 41.932 -1.826Q42.614000000000004 -0.9019999999999999 43.626000000000005 -0.352Q44.638 0.19799999999999998 45.980000000000004 0.19799999999999998Q46.926 0.19799999999999998 47.74 -0.09899999999999999Q48.554 -0.39599999999999996 49.159000000000006 -0.957Q49.764 -1.518 50.105000000000004 -2.288Q50.446 -3.058 50.446 -4.004Q50.446 -5.016 50.094 -5.753Q49.742000000000004 -6.489999999999999 49.181000000000004 -7.017999999999999Q48.620000000000005 -7.545999999999999 47.938 -7.898Q47.256 -8.25 46.618 -8.491999999999999Q45.386 -8.931999999999999 44.55 -9.427Q43.714 -9.921999999999999 43.296 -10.538Q42.878 -11.154 42.878 -12.011999999999999Q42.878 -13.046 43.604 -13.738999999999999Q44.33 -14.431999999999999 45.672 -14.431999999999999Q46.684 -14.431999999999999 47.366 -14.046999999999999Q48.048 -13.661999999999999 48.499 -13.09Q48.95 -12.517999999999999 49.192 -11.924L50.248000000000005 -12.517999999999999Q49.94 -13.266 49.346000000000004 -13.969999999999999Q48.752 -14.674 47.861000000000004 -15.136Q46.97 -15.597999999999999 45.738 -15.597999999999999Q44.55 -15.597999999999999 43.604 -15.125Q42.658 -14.652 42.13 -13.805Q41.602000000000004 -12.957999999999998 41.602000000000004 -11.857999999999999Q41.602000000000004 -10.867999999999999 41.987 -10.163999999999998Q42.372 -9.459999999999999 42.988 -8.965Q43.604 -8.469999999999999 44.319 -8.129Q45.034 -7.787999999999999 45.694 -7.545999999999999Q46.574 -7.215999999999999 47.376999999999995 -6.786999999999999Q48.18 -6.358 48.686 -5.676Q49.192 -4.994 49.192 -3.872Q49.192 -2.5959999999999996 48.345 -1.771Q47.498000000000005 -0.946 46.002 -0.946Q44.902 -0.946 44.11 -1.419Q43.318 -1.892 42.778999999999996 -2.684Q42.24 -3.476 41.866 -4.444Z"/><path transform="translate(134.60 17.84)" d="M60.984 -14.255999999999998H65.032V0.0H66.242V-14.255999999999998H70.29V-15.399999999999999H60.984Z"/><path transform="translate(134.60 17.84)" d="M81.642 -15.399999999999999V0.0H82.85199999999999V-15.399999999999999Z"/><path transform="translate(134.60 17.84)" d="M94.204 -14.255999999999998H98.25199999999998V0.0H99.46199999999999V-14.255999999999998H103.50999999999999V-15.399999999999999H94.204Z"/><path transform="translate(134.60 17.84)" d="M114.79599999999999 -15.399999999999999V-4.9719999999999995Q114.79599999999999 -3.828 115.12599999999999 -2.871Q115.45599999999999 -1.914 116.094 -1.232Q116.732 -0.5499999999999999 117.645 -0.16499999999999998Q118.55799999999999 0.21999999999999997 119.72399999999999 0.21999999999999997Q120.88999999999999 0.21999999999999997 121.803 -0.16499999999999998Q122.716 -0.5499999999999999 123.35399999999998 -1.232Q123.99199999999999 -1.914 124.32199999999999 -2.871Q124.65199999999999 -3.828 124.65199999999999 -4.9719999999999995V-15.399999999999999H123.442V-4.9719999999999995Q123.442 -3.1239999999999997 122.47399999999999 -2.024Q121.506 -0.9239999999999999 119.72399999999999 -0.9239999999999999Q117.942 -0.9239999999999999 116.97399999999999 -2.024Q116.00599999999999 -3.1239999999999997 116.00599999999999 -4.9719999999999995V-15.399999999999999Z"/><path transform="translate(134.60 17.84)" d="M135.938 -14.255999999999998H139.986V0.0H141.196V-14.255999999999998H145.244V-15.399999999999999H135.938Z"/><path transform="translate(134.60 17.84)" d="M157.036 -7.699999999999999Q157.036 -9.636 157.861 -11.142999999999999Q158.686 -12.649999999999999 160.127 -13.518999999999998Q161.568 -14.388 163.416 -14.388Q165.264 -14.388 166.705 -13.518999999999998Q168.14600000000002 -12.649999999999999 168.96 -11.142999999999999Q169.774 -9.636 169.774 -7.699999999999999Q169.774 -5.786 168.96 -4.268Q168.14600000000002 -2.75 166.705 -1.881Q165.264 -1.012 163.416 -1.012Q161.568 -1.012 160.127 -1.881Q158.686 -2.75 157.861 -4.268Q157.036 -5.786 157.036 -7.699999999999999ZM155.76 -7.699999999999999Q155.76 -6.005999999999999 156.332 -4.5649999999999995Q156.904 -3.1239999999999997 157.938 -2.057Q158.972 -0.99 160.369 -0.396Q161.766 0.19799999999999998 163.416 0.19799999999999998Q165.066 0.19799999999999998 166.46300000000002 -0.396Q167.86 -0.99 168.894 -2.057Q169.928 -3.1239999999999997 170.5 -4.5649999999999995Q171.072 -6.005999999999999 171.072 -7.699999999999999Q171.072 -9.394 170.5 -10.835Q169.928 -12.276 168.894 -13.343Q167.86 -14.409999999999998 166.46300000000002 -15.003999999999998Q165.066 -15.597999999999999 163.416 -15.597999999999999Q161.766 -15.597999999999999 160.369 -15.003999999999998Q158.972 -14.409999999999998 157.938 -13.343Q156.904 -12.276 156.332 -10.835Q155.76 -9.394 155.76 -7.699999999999999Z"/><path transform="translate(4.00 106.76)" d="M19.488 -32.064 41.76 0.0H48.288000000000004L25.344 -32.064ZM8.064 -67.2V0.0H13.344V-67.2ZM10.848 -62.496H23.424Q28.512 -62.496 32.448 -60.768Q36.384 -59.04 38.64 -55.775999999999996Q40.896 -52.512 40.896 -47.712Q40.896 -42.912 38.688 -39.6Q36.480000000000004 -36.288000000000004 32.496 -34.608000000000004Q28.512 -32.928 23.424 -32.928H10.848V-28.224H23.424Q29.952 -28.224 35.088 -30.480000000000004Q40.224000000000004 -32.736000000000004 43.2 -37.152Q46.176 -41.568 46.176 -47.712Q46.176 -53.952 43.2 -58.272Q40.224000000000004 -62.592 35.088 -64.896Q29.952 -67.2 23.424 -67.2H10.848Z"/><path transform="translate(4.00 106.76)" d="M88.8 -33.6Q88.8 -42.048 92.4 -48.624Q96.0 -55.2 102.288 -58.992000000000004Q108.576 -62.784 116.63999999999999 -62.784Q124.704 -62.784 130.992 -58.992000000000004Q137.28 -55.2 140.832 -48.624Q144.38400000000001 -42.048 144.38400000000001 -33.6Q144.38400000000001 -25.248 140.832 -18.624000000000002Q137.28 -12.0 130.992 -8.208Q124.704 -4.416 116.63999999999999 -4.416Q108.576 -4.416 102.288 -8.208Q96.0 -12.0 92.4 -18.624000000000002Q88.8 -25.248 88.8 -33.6ZM83.232 -33.6Q83.232 -26.208000000000002 85.728 -19.92Q88.22399999999999 -13.632 92.73599999999999 -8.975999999999999Q97.24799999999999 -4.32 103.344 -1.7280000000000002Q109.44 0.864 116.63999999999999 0.864Q123.84 0.864 129.93599999999998 -1.7280000000000002Q136.03199999999998 -4.32 140.54399999999998 -8.975999999999999Q145.05599999999998 -13.632 147.552 -19.92Q150.048 -26.208000000000002 150.048 -33.6Q150.048 -40.992 147.552 -47.28Q145.05599999999998 -53.568 140.54399999999998 -58.224000000000004Q136.03199999999998 -62.88 129.93599999999998 -65.47200000000001Q123.84 -68.06400000000001 116.63999999999999 -68.06400000000001Q109.44 -68.06400000000001 103.344 -65.47200000000001Q97.24799999999999 -62.88 92.73599999999999 -58.224000000000004Q88.22399999999999 -53.568 85.728 -47.28Q83.232 -40.992 83.232 -33.6Z"/><path transform="translate(4.00 106.76)" d="M192.96 -33.6Q192.96 -42.24 196.608 -48.768Q200.256 -55.296 206.4 -58.992000000000004Q212.544 -62.688 220.128 -62.688Q224.832 -62.688 228.768 -61.632000000000005Q232.704 -60.576 235.96800000000002 -58.512Q239.232 -56.448 241.728 -53.568V-60.576Q237.50400000000002 -64.32000000000001 232.512 -66.19200000000001Q227.52 -68.06400000000001 220.128 -68.06400000000001Q213.12 -68.06400000000001 207.12 -65.52000000000001Q201.12 -62.976 196.704 -58.367999999999995Q192.288 -53.76 189.792 -47.424Q187.296 -41.088 187.296 -33.6Q187.296 -26.112000000000002 189.792 -19.776Q192.288 -13.44 196.704 -8.832Q201.12 -4.224 207.12 -1.6800000000000002Q213.12 0.864 220.128 0.864Q227.52 0.864 232.512 -1.008Q237.50400000000002 -2.88 241.728 -6.6240000000000006V-13.728Q239.232 -10.848 236.01600000000002 -8.736Q232.8 -6.6240000000000006 228.864 -5.5680000000000005Q224.928 -4.5120000000000005 220.128 -4.5120000000000005Q212.544 -4.5120000000000005 206.4 -8.256Q200.256 -12.0 196.608 -18.528Q192.96 -25.056 192.96 -33.6Z"/><path transform="translate(4.00 106.76)" d="M287.52 -33.6Q287.52 -42.24 291.168 -48.768Q294.81600000000003 -55.296 300.96000000000004 -58.992000000000004Q307.104 -62.688 314.688 -62.688Q319.392 -62.688 323.328 -61.632000000000005Q327.264 -60.576 330.528 -58.512Q333.79200000000003 -56.448 336.288 -53.568V-60.576Q332.064 -64.32000000000001 327.072 -66.19200000000001Q322.08 -68.06400000000001 314.688 -68.06400000000001Q307.68 -68.06400000000001 301.68 -65.52000000000001Q295.68 -62.976 291.264 -58.367999999999995Q286.848 -53.76 284.352 -47.424Q281.856 -41.088 281.856 -33.6Q281.856 -26.112000000000002 284.352 -19.776Q286.848 -13.44 291.264 -8.832Q295.68 -4.224 301.68 -1.6800000000000002Q307.68 0.864 314.688 0.864Q322.08 0.864 327.072 -1.008Q332.064 -2.88 336.288 -6.6240000000000006V-13.728Q333.79200000000003 -10.848 330.576 -8.736Q327.36 -6.6240000000000006 323.424 -5.5680000000000005Q319.488 -4.5120000000000005 314.688 -4.5120000000000005Q307.104 -4.5120000000000005 300.96000000000004 -8.256Q294.81600000000003 -12.0 291.168 -18.528Q287.52 -25.056 287.52 -33.6Z"/><path transform="translate(4.00 106.76)" d="M378.46 0.97 L405.63 -63.48 L401.03 -65.42 L373.86 -0.97 Z"/><path transform="translate(4.00 106.76)" d="M401.03 -63.48 L428.20 0.97 L432.80 -0.97 L405.63 -65.42 Z"/></g></svg>